<?xml version="1.0" encoding="UTF-8"?>
<svg id="Layer_3" data-name="Layer 3" xmlns="http://www.w3.org/2000/svg" viewBox="0 0 201 201">
  <defs>
    <style>
      .cls-1 {
        fill: #fff;
        stroke: #000;
        stroke-miterlimit: 10;
        stroke-width: 2.54px;
      }
    </style>
  </defs>
  <polygon class="cls-1" points="118.34 81.68 177.67 39.03 123.25 87.79 192.51 64.53 126.14 95.08 199.18 93.26 126.76 102.89 197.09 122.68 125.04 110.54 186.42 150.18 121.15 117.34 168.11 173.32 115.42 122.7 143.8 190.02 108.37 126.12 115.64 198.82 100.63 127.32 86.14 198.94 92.87 126.18 57.92 190.35 85.8 122.81 33.49 173.82 80.03 117.5 15.01 150.83 76.09 110.72 4.13 123.41 74.31 103.09 1.82 94 74.87 95.27 8.27 65.22 77.71 87.96 22.93 39.61 82.57 81.82 44.48 19.47 89.03 77.38 71 6.57 96.51 75.04 100.16 2.06 104.35 75.01 129.34 6.35 111.85 77.29 155.97 19.05 118.34 81.68"/>
</svg>